<svg aria-hidden="true" style="position: absolute; width: 0; height: 0; overflow: hidden;" version="1.1" xmlns="http://www.w3.org/2000/svg" xmlns:xlink="http://www.w3.org/1999/xlink">
<defs>
<symbol id="icon-Vector" viewBox="0 0 32 32">
<path d="M29.943 3.223l-12.777 12.777 12.777 12.777-1.166 1.166-12.777-12.777-12.777 12.777-1.166-1.166 12.777-12.777-12.777-12.777 1.166-1.166 12.777 12.777 12.777-12.777 1.166 1.166z"></path>
<path d="M29.943 3.223l-12.777 12.777 12.777 12.777-1.166 1.166-12.777-12.777-12.777 12.777-1.166-1.166 12.777-12.777-12.777-12.777 1.166-1.166 12.777 12.777 12.777-12.777 1.166 1.166z"></path>
<path stroke-linejoin="miter" stroke-linecap="butt" stroke-miterlimit="4" stroke-width="2.9091" d="M29.943 3.223l-12.777 12.777 12.777 12.777-1.166 1.166-12.777-12.777-12.777 12.777-1.166-1.166 12.777-12.777-12.777-12.777 1.166-1.166 12.777 12.777 12.777-12.777 1.166 1.166z"></path>
</symbol>
</defs>
</svg>
